<svg width="88" height="55" viewBox="0 0 88 55" fill="none" xmlns="http://www.w3.org/2000/svg">
<path d="M3.91834 12.3675C4.30118 18.4068 10.5032 28.5579 32.2487 20.8482C34.163 20.0772 37.6086 21.2337 35.3115 23.1611C32.6316 25.474 7.6702 15.4514 1.23843 3.11579C0.60036 1.95933 0.855589 0.0319017 6.98108 1.57385C13.4535 3.20313 30.5951 5.10787 39.9057 14.7391M44.117 20.8482C49.6299 32.8753 45.3931 47.9607 42.5856 54M44.117 20.8482C40.6714 27.4014 39.14 39.737 45.2655 54M44.117 20.8482C43.051 18.5226 41.6095 16.5015 39.9057 14.7391M44.117 20.8482C45.573 18.5534 46.9293 16.5295 48.3383 14.7391M84.3155 12.3675C83.5499 18.0213 77.8072 27.9411 60.9621 22.3901C57.8994 21.2337 51.8504 19.5375 52.1567 22.0046C52.463 24.4717 60.4516 22.2616 64.4077 20.8482C72.0646 16.6078 87.3017 7.35615 86.9955 4.27226C86.6892 1.18837 81.2528 1.57385 75.5101 2.34483C59.9302 4.43649 53.7461 7.8674 48.3383 14.7391M39.9057 14.7391C39.8045 12.7873 40.201 9.28758 42.2028 7.92289M48.3383 14.7391C48.4626 12.2781 47.7923 7.35615 44.117 7.35615C43.3565 7.35615 42.725 7.56686 42.2028 7.92289M39.14 4.27226L42.2028 7.92289M49.094 4.27226L46.4141 7.92289" stroke="#F9FFF9"/>
</svg>
